<?xml version="1.0" encoding="UTF-8" standalone="no"?>
<!-- Created with Inkscape (http://www.inkscape.org/) -->

<svg
   xmlns:dc="http://purl.org/dc/elements/1.1/"
   xmlns:cc="http://creativecommons.org/ns#"
   xmlns:rdf="http://www.w3.org/1999/02/22-rdf-syntax-ns#"
   xmlns:svg="http://www.w3.org/2000/svg"
   xmlns="http://www.w3.org/2000/svg"
   xmlns:sodipodi="http://sodipodi.sourceforge.net/DTD/sodipodi-0.dtd"
   xmlns:inkscape="http://www.inkscape.org/namespaces/inkscape"
   width="744.09448"
   height="1052.3622"
   id="svg2"
   version="1.1"
   inkscape:version="0.48.2 r9819"
   sodipodi:docname="stamp.svg">
  <defs
     id="defs4">
    <clipPath
       clipPathUnits="userSpaceOnUse"
       id="clipPath3834">
      <path
         sodipodi:type="arc"
         style="fill:none;stroke:#000000;stroke-opacity:1"
         id="path3836"
         sodipodi:cx="320"
         sodipodi:cy="492.36218"
         sodipodi:rx="160"
         sodipodi:ry="160"
         d="m 480,492.36218 a 160,160 0 1 1 -320,0 160,160 0 1 1 320,0 z" />
    </clipPath>
    <clipPath
       clipPathUnits="userSpaceOnUse"
       id="clipPath3838">
      <path
         sodipodi:type="arc"
         style="fill:none;stroke:#000000;stroke-opacity:1"
         id="path3840"
         sodipodi:cx="320"
         sodipodi:cy="492.36218"
         sodipodi:rx="160"
         sodipodi:ry="160"
         d="m 480,492.36218 a 160,160 0 1 1 -320,0 160,160 0 1 1 320,0 z" />
    </clipPath>
    <clipPath
       clipPathUnits="userSpaceOnUse"
       id="clipPath3842">
      <path
         sodipodi:type="arc"
         style="fill:none;stroke:#000000;stroke-opacity:1"
         id="path3844"
         sodipodi:cx="320"
         sodipodi:cy="492.36218"
         sodipodi:rx="160"
         sodipodi:ry="160"
         d="m 480,492.36218 a 160,160 0 1 1 -320,0 160,160 0 1 1 320,0 z" />
    </clipPath>
  </defs>
  <sodipodi:namedview
     id="base"
     pagecolor="#ffffff"
     bordercolor="#666666"
     borderopacity="1.0"
     inkscape:pageopacity="0.0"
     inkscape:pageshadow="2"
     inkscape:zoom="1.979899"
     inkscape:cx="-128.57143"
     inkscape:cy="990.73416"
     inkscape:document-units="mm"
     inkscape:current-layer="layer1"
     showgrid="true"
     inkscape:snap-grids="false"
     inkscape:window-width="1920"
     inkscape:window-height="1056"
     inkscape:window-x="0"
     inkscape:window-y="24"
     inkscape:window-maximized="1"
     units="mm">
    <inkscape:grid
       type="xygrid"
       id="grid2985"
       empspacing="5"
       visible="true"
       enabled="true"
       snapvisiblegridlinesonly="true" />
  </sodipodi:namedview>
  <metadata
     id="metadata7">
    <rdf:RDF>
      <cc:Work
         rdf:about="">
        <dc:format>image/svg+xml</dc:format>
        <dc:type
           rdf:resource="http://purl.org/dc/dcmitype/StillImage" />
        <dc:title></dc:title>
      </cc:Work>
    </rdf:RDF>
  </metadata>
  <g
     inkscape:label="Layer 1"
     inkscape:groupmode="layer"
     id="layer1"
     transform="translate(0,-2.5390623e-6)">
    <path
       sodipodi:type="arc"
       style="fill:#000000;fill-opacity:1;stroke:none"
       id="path3046"
       sodipodi:cx="320"
       sodipodi:cy="492.36218"
       sodipodi:rx="160"
       sodipodi:ry="160"
       d="m 480,492.36218 a 160,160 0 1 1 -320,0 160,160 0 1 1 320,0 z"
       clip-path="url(#clipPath3842)"
       transform="matrix(0.22162365,-0.22162365,0.22162365,0.22162365,-77.431351,46.676061)"
       inkscape:export-filename="/home/phooky/Projects/Diplomat/stamp.png"
       inkscape:export-xdpi="600"
       inkscape:export-ydpi="600" />
    <path
       style="fill:none;stroke:#ffffff;stroke-width:31.88976288;stroke-linecap:butt;stroke-linejoin:round;stroke-miterlimit:4;stroke-opacity:1;stroke-dasharray:none"
       d="m 140,492.36218 60,0 20,-80 40,160 40,-160 40,160 40,-160 40,160 20,-80 60,0"
       id="path2987"
       inkscape:connector-curvature="0"
       clip-path="url(#clipPath3838)"
       transform="matrix(0.22162365,-0.22162365,0.22162365,0.22162365,-77.431351,46.676061)"
       inkscape:export-filename="/home/phooky/Projects/Diplomat/stamp.png"
       inkscape:export-xdpi="600"
       inkscape:export-ydpi="600" />
    <path
       style="fill:none;stroke:#000000;stroke-width:8.90433025;stroke-linecap:butt;stroke-linejoin:bevel;stroke-miterlimit:4;stroke-opacity:1;stroke-dasharray:none"
       d="m 140,492.36218 60,0 20,-80 40,160 40,-160 40,160 40,-160 40,160 20,-80 60,0"
       id="path2987-9"
       inkscape:connector-curvature="0"
       clip-path="url(#clipPath3834)"
       transform="matrix(0.22162365,-0.22162365,0.22162365,0.22162365,-77.431351,46.676061)"
       inkscape:export-filename="/home/phooky/Projects/Diplomat/stamp.png"
       inkscape:export-xdpi="600"
       inkscape:export-ydpi="600" />
    <text
       xml:space="preserve"
       style="font-size:48px;font-style:normal;font-variant:normal;font-weight:bold;font-stretch:normal;text-align:center;line-height:125%;letter-spacing:0px;word-spacing:0px;text-anchor:middle;fill:#000000;fill-opacity:1;stroke:none;font-family:Ubuntu;-inkscape-font-specification:Ubuntu Bold"
       x="320"
       y="312.36218"
       id="text3851"
       sodipodi:linespacing="125%"><tspan
         sodipodi:role="line"
         id="tspan3853"
         x="320"
         y="312.36218"
         rotate="0"
         style="font-style:normal;font-variant:normal;font-weight:bold;font-stretch:normal;letter-spacing:-1.36000001px;font-family:DejaVu Sans;-inkscape-font-specification:DejaVu Sans Bold" /></text>
    <path
       sodipodi:type="arc"
       style="fill:none;stroke:none"
       id="path3857"
       sodipodi:cx="320"
       sodipodi:cy="492.36218"
       sodipodi:rx="180"
       sodipodi:ry="180"
       d="m 140.001,492.96314 a 180,180 0 0 1 359.99537,-1.74481"
       inkscape:transform-center-y="-0.84106609"
       sodipodi:start="3.138254"
       sodipodi:end="6.2768305"
       sodipodi:open="true"
       transform="matrix(0.31342317,0,0,0.31342317,2.3119083,-69.442119)"
       inkscape:export-filename="/home/phooky/Projects/Diplomat/stamp.png"
       inkscape:export-xdpi="600"
       inkscape:export-ydpi="600" />
    <g
       inkscape:transform-center-x="39.508732"
       style="font-size:38px;font-style:normal;font-variant:normal;font-weight:bold;font-stretch:normal;text-align:center;line-height:125%;letter-spacing:0px;word-spacing:0px;text-anchor:middle;fill:#000000;fill-opacity:1;stroke:none;font-family:Bitstream Charter;-inkscape-font-specification:Bitstream Charter Bold"
       id="text3859"
       transform="matrix(0.31342317,0,0,0.31342317,2.3119083,-69.442119)"
       inkscape:export-filename="/home/phooky/Projects/Diplomat/stamp.png"
       inkscape:export-xdpi="600"
       inkscape:export-ydpi="600">
      <path
         d="m 139.63789,486.52501 0.88511,-8.61867 -1.81445,-0.18634 -0.5431,2.31262 -0.74253,0.53494 -17.50195,-1.7974 21.64243,-10.99453 0.43479,-4.23374 -22.5673,-2.3176 -0.65223,-0.71638 -0.0734,-2.26132 -1.77665,-0.18246 -0.88512,8.61867 1.77666,0.18246 0.53922,-2.27482 0.7881,-0.60666 16.1789,1.66153 -19.14348,9.72317 -1.02063,-0.10481 -0.89288,8.69427 1.85226,0.19022 0.43746,-2.39986 0.58357,-0.47487 19.99682,2.05362 0.61055,0.7503 0.0734,2.26132 1.81446,0.18634"
         style="font-size:38px;font-weight:bold;-inkscape-font-specification:Bitstream Charter Bold"
         id="path4387"
         inkscape:connector-curvature="0" />
      <path
         d="m 117.66949,454.28053 1.80698,0.4493 0.95561,-2.26844 14.59377,-3.88943 7.19104,1.78804 0.36957,0.71841 -0.42997,2.51661 1.84385,0.45848 2.75084,-11.06314 -1.84385,-0.45847 -0.80791,2.4618 -0.66299,0.46166 -8.07609,-2.00811 -10.16911,-9.96839 0.13535,-2.27661 -1.80698,-0.4493 -1.99894,8.0392 1.7701,0.44014 0.95582,-2.11176 0.66339,-0.14831 7.72366,7.51994 -10.623,2.72313 -0.36,-0.44193 0.3291,-2.11097 -1.80698,-0.4493 -2.50326,10.06745"
         style="font-size:38px;font-weight:bold;-inkscape-font-specification:Bitstream Charter Bold"
         id="path4389"
         inkscape:connector-curvature="0" />
      <path
         d="m 155.62498,415.93695 -6.0784,-2.40257 -1.00573,2.54445 3.92688,2.57367 0.32057,0.73962 c -0.12321,0.93196 -0.29656,1.68065 -0.53402,2.28142 -2.08129,5.26559 -7.09841,7.00084 -13.42419,4.5005 -6.25509,-2.4724 -8.70859,-7.11965 -6.79492,-11.96116 0.36317,-0.91883 0.90305,-1.76782 1.63359,-2.5823 l 0.79633,-0.25729 4.04673,0.82317 1.03367,-2.61513 -5.90171,-2.33272 c -1.78403,2.0325 -3.1933,4.25401 -4.15712,6.69243 -1.45271,3.67531 -1.5445,7.1122 -0.26879,10.19066 1.34722,3.31104 3.98958,5.82645 7.59421,7.25123 4.52346,1.78795 9.34754,1.16136 12.9913,-1.64791 1.70929,-1.32656 3.15474,-3.32946 4.16046,-5.8739 1.01969,-2.57979 1.57341,-5.22118 1.66114,-7.92417"
         style="font-size:38px;font-weight:bold;-inkscape-font-specification:Bitstream Charter Bold"
         id="path4391"
         inkscape:connector-curvature="0" />
      <path
         d="m 141.32061,390.13913 1.56079,1.01537 1.38185,-1.77571 0.77749,-0.21954 16.97759,11.04473 0.17809,0.8412 -1.06332,1.98293 1.56079,1.01537 5.84356,-8.98252 -1.5608,-1.01537 -1.42329,1.83942 -0.8412,0.1781 -7.16689,-4.66241 c 0.12433,-0.19112 0.24866,-0.38224 0.35227,-0.5415 2.0929,-3.21714 4.00135,-3.15428 7.66974,-2.17315 1.86049,0.48501 3.48037,1.13081 5.83202,0.30334 1.10252,-0.37076 2.25147,-1.30065 3.14251,-2.67033 0.64237,-0.98744 1.25136,-2.1326 1.81736,-3.35106 l -1.52894,-0.99465 c -0.10361,0.15927 -0.1865,0.28668 -0.26939,0.41409 -1.38836,2.13414 -2.48781,2.7789 -4.67487,2.30811 -1.98636,-0.43088 -3.87219,-1.29504 -5.9161,-1.21936 -1.49589,0.0695 -2.80564,0.7588 -4.15067,2.0598 1.67266,-4.03453 1.04778,-7.11572 -1.88268,-9.02213 -3.53567,-2.30012 -7.1046,-0.9952 -10.31648,3.94199 l -6.29943,9.68328 m 6.06359,-5.3487 0.9532,-1.46523 c 2.01002,-3.08973 4.53207,-3.76102 7.144,-2.06183 2.93046,1.9064 3.21147,4.40122 0.99424,7.80948 -0.22794,0.35038 -0.47661,0.73261 -0.77784,1.12598 l -8.3136,-5.4084"
         style="font-size:38px;font-weight:bold;-inkscape-font-specification:Bitstream Charter Bold"
         id="path4393"
         inkscape:connector-curvature="0" />
      <path
         d="m 184.59426,366.42748 c -0.35095,2.59061 -1.15475,4.59872 -2.45604,6.13586 -2.43072,2.87128 -5.92519,2.99987 -9.26051,0.17631 -0.029,-0.0245 -0.058,-0.0491 -0.087,-0.0737 l 8.02874,-9.48392 c -0.17402,-0.14732 -0.37704,-0.31919 -0.55105,-0.4665 -4.17641,-3.53559 -8.4452,-3.3157 -11.66161,0.48367 -3.53559,4.1764 -3.01922,9.74174 1.41821,13.4983 4.37942,3.70746 9.68588,3.32045 13.34423,-1.00097 1.71869,-2.03019 2.85733,-4.55145 3.37125,-7.45219 l -2.14621,-1.8169 m -8.52837,-0.74734 -4.68957,5.53954 c -2.44959,-2.22309 -2.89307,-4.63984 -1.41991,-6.38001 1.3504,-1.59516 3.38321,-1.46748 5.79044,0.57039 0.11602,0.0982 0.20302,0.17187 0.31904,0.27008"
         style="font-size:38px;font-weight:bold;-inkscape-font-specification:Bitstream Charter Bold"
         id="path4395"
         inkscape:connector-curvature="0" />
      <path
         d="m 187.34567,345.15664 c -1.84414,0.87878 -3.42372,1.97759 -4.79245,3.29538 -3.36706,3.24178 -3.70497,6.89036 -1.43836,9.24457 1.58135,1.64247 3.54405,1.59905 6.54493,0.66157 3.16309,-0.98816 4.90488,-2.13763 6.3281,-0.65941 1.15966,1.20448 1.04901,2.788 -0.42921,4.21122 -0.82123,0.79068 -1.77221,1.33702 -2.85293,1.63903 l -0.56366,-0.0376 -2.56773,-2.06429 -1.66985,1.60771 3.90068,4.05143 c 2.14527,-1.1687 3.86172,-2.39928 5.17569,-3.66437 3.53131,-3.39991 3.89762,-7.12858 1.23567,-9.8934 -1.89762,-1.97097 -4.16959,-1.20779 -7.73922,-0.0392 -2.37942,0.76114 -3.75821,1.19188 -4.86515,0.0421 -0.97517,-1.01286 -0.84225,-2.35408 0.4991,-3.64552 0.62961,-0.60619 1.38999,-1.02177 2.22841,-1.3015 l 0.61841,-0.0152 2.25045,1.78953 1.64247,-1.58135 -3.50535,-3.64081"
         style="font-size:38px;font-weight:bold;-inkscape-font-specification:Bitstream Charter Bold"
         id="path4397"
         inkscape:connector-curvature="0" />
      <path
         d="m 188.66972,331.6882 c -1.20406,0.98874 -1.34274,2.67608 -0.30576,3.93887 1.06108,1.29216 2.75368,1.37736 3.92836,0.41273 1.23343,-1.01286 1.42559,-2.69495 0.34039,-4.01647 -0.98875,-1.20406 -2.64147,-1.42034 -3.96299,-0.33513 m 5.82141,6.43045 -3.00734,4.78057 0.96463,1.17469 1.93824,-1.59163 8.3199,10.13169 -0.0494,0.77813 -1.48937,1.41972 1.08521,1.32152 7.69421,-6.31831 -1.08521,-1.32152 -1.74102,1.23301 -0.80225,-0.0788 -10.41797,-12.68664 -1.40963,1.15755"
         style="font-size:38px;font-weight:bold;-inkscape-font-specification:Bitstream Charter Bold"
         id="path4399"
         inkscape:connector-curvature="0" />
      <path
         d="m 212.26009,326.02859 c -1.95945,0.57767 -3.69225,1.41424 -5.25127,2.50025 -3.83521,2.67159 -4.74302,6.22156 -2.87508,8.90308 1.30322,1.87084 3.2483,2.13679 6.35931,1.68317 3.27917,-0.47814 5.18013,-1.33923 6.35302,0.34452 0.9557,1.37195 0.59726,2.91833 -1.08649,4.09123 -0.93541,0.65161 -1.96051,1.04151 -3.07529,1.16971 l -0.55073,-0.12578 -2.21093,-2.44261 -1.90202,1.32494 3.2146,4.61472 c 2.30244,-0.81658 4.19114,-1.76176 5.68781,-2.80433 4.02229,-2.80191 4.97074,-6.4265 2.77699,-9.57573 -1.56386,-2.245 -3.9276,-1.84883 -7.63664,-1.25649 -2.46954,0.37726 -3.89893,0.58568 -4.81118,-0.7239 -0.80365,-1.15368 -0.46134,-2.45729 1.0665,-3.52158 0.71716,-0.49956 1.53345,-0.79033 2.40545,-0.93465 l 0.61309,0.0823 1.94082,2.12134 1.87084,-1.30322 -2.8888,-4.14702"
         style="font-size:38px;font-weight:bold;-inkscape-font-specification:Bitstream Charter Bold"
         id="path4401"
         inkscape:connector-curvature="0" />
      <path
         d="m 219.15217,324.53933 5.5286,9.57674 c 0.96892,1.6784 1.60979,2.71252 3.1986,2.80449 1.0609,0.0896 2.06346,-0.22592 3.14948,-0.85287 1.3493,-0.77894 2.87063,-2.09597 4.42724,-3.9599 l -0.91193,-1.57967 c -0.5632,0.54452 -1.21631,1.00931 -2.00615,1.46528 -2.17204,1.25391 -3.22547,0.72123 -4.57437,-1.61536 l -4.73065,-8.19454 4.87064,-2.81179 -1.13991,-1.97459 -4.87065,2.8118 -2.35583,-4.08082 -2.07331,1.19692 0.26454,4.41054 -1.63738,2.78811 0.72195,1.25057 2.13913,-1.23491"
         style="font-size:38px;font-weight:bold;-inkscape-font-specification:Bitstream Charter Bold"
         id="path4403"
         inkscape:connector-curvature="0" />
      <path
         d="m 238.37087,310.86707 c -5.43609,2.45806 -7.37086,7.58675 -4.95976,12.91896 2.36412,5.22834 7.42688,7.10952 12.62059,4.76105 5.47071,-2.47372 7.38651,-7.55213 5.06936,-12.67659 -2.48938,-5.50534 -7.43261,-7.39886 -12.73019,-5.00342 m 0.69129,1.89774 c 2.45836,-1.11161 5.16271,0.62655 7.21371,5.1624 2.03533,4.50121 1.59214,7.57921 -0.97009,8.73779 -2.42373,1.09595 -5.09346,-0.65787 -7.14446,-5.19371 -2.01968,-4.46659 -1.55751,-7.59488 0.90084,-8.70648"
         style="font-size:38px;font-weight:bold;-inkscape-font-specification:Bitstream Charter Bold"
         id="path4405"
         inkscape:connector-curvature="0" />
      <path
         d="m 257.00364,323.55087 9.9602,-3.28519 -0.53563,-1.62394 -2.60984,0.70075 -0.71986,-0.36277 -3.41612,-10.35717 c 0.89257,-1.05466 1.65155,-1.66511 2.22895,-1.85556 1.04654,-0.34518 1.93532,-0.19818 2.7742,0.52547 l 1.87656,-0.61895 -1.17345,-5.13484 c -0.92486,-0.1351 -1.79021,-0.0898 -2.58414,0.1721 -0.25261,0.0833 -0.52941,0.21463 -0.77012,0.33404 -1.13441,1.53456 -2.17323,3.23766 -3.00817,5.07358 l -1.06974,-3.72856 -1.73221,0.57134 -4.74546,3.44584 0.47612,1.44351 2.59831,-0.85701 4.10649,12.45026 -0.32669,0.70796 -1.86503,0.7752 0.53563,1.62394"
         style="font-size:38px;font-weight:bold;-inkscape-font-specification:Bitstream Charter Bold"
         id="path4407"
         inkscape:connector-curvature="0" />
      <path
         d="m 290.51262,288.96319 -10.99348,1.50485 0.25252,1.8448 2.32236,-0.12613 0.68484,0.51993 2.73655,19.99157 -0.51993,0.68484 -2.27081,0.50261 0.25252,1.8448 10.99349,-1.50485 c 3.76488,-0.51536 6.51125,-1.46661 8.59811,-3.59328 2.73004,-2.75167 3.83717,-6.43183 3.22904,-10.87439 -1.08225,-7.90627 -6.55067,-11.99038 -15.28521,-10.79475 m -2.83626,2.53609 2.18364,-0.29891 c 5.98617,-0.81942 9.35412,2.20981 10.32299,9.2878 0.96888,7.07799 -1.45597,10.93852 -7.44214,11.75794 l -2.18363,0.29891 -2.88086,-21.04574"
         style="font-size:38px;font-weight:bold;-inkscape-font-specification:Bitstream Charter Bold"
         id="path4409"
         inkscape:connector-curvature="0" />
      <path
         d="m 314.28303,284.92757 c -1.55735,0.0451 -2.69969,1.29462 -2.65243,2.92794 0.0484,1.6713 1.33481,2.77455 2.85418,2.73059 1.59533,-0.0462 2.77675,-1.25885 2.72729,-2.96813 -0.0451,-1.55734 -1.21976,-2.73986 -2.92904,-2.6904 m 0.66842,8.64828 -5.3041,1.94023 0.044,1.51936 2.50695,-0.0725 0.37919,13.10451 -0.51529,0.58515 -2.04674,0.21129 0.0495,1.70929 9.95183,-0.28797 -0.0495,-1.70928 -2.1315,-0.0904 -0.58625,-0.55328 -0.47482,-16.40913 -1.82323,0.0528"
         style="font-size:38px;font-weight:bold;-inkscape-font-specification:Bitstream Charter Bold"
         id="path4411"
         inkscape:connector-curvature="0" />
      <path
         d="m 320.85276,320.37602 10.125,0.65248 0.15033,-1.74194 -2.37927,-0.30564 -0.53461,-0.56755 0.391,-6.06742 c 1.24163,0.23233 2.26062,0.37416 3.09489,0.42792 6.14325,0.39588 10.3033,-3.29624 10.6943,-9.36365 0.34212,-5.30898 -2.57075,-9.15226 -6.59041,-9.4113 -1.85814,-0.11974 -3.80798,0.59234 -6.14553,2.00294 l 0.14663,-2.27528 -1.70646,-0.10997 -5.65138,1.42551 -0.0978,1.51686 2.61658,0.16862 -1.37338,21.31179 -0.56756,0.53461 -2.05997,0.0576 -0.11241,1.74438 m 7.88686,-10.11574 0.8162,-12.66573 c 1.16697,-0.38174 2.17003,-0.58365 3.04222,-0.52745 3.07163,0.19794 4.85899,2.59786 4.59752,6.65544 -0.29325,4.55056 -2.70901,7.17464 -6.04608,6.95959 -0.75843,-0.0489 -1.54989,-0.17604 -2.40986,-0.42185"
         style="font-size:38px;font-weight:bold;-inkscape-font-specification:Bitstream Charter Bold"
         id="path4413"
         inkscape:connector-curvature="0" />
      <path
         d="m 343.80473,313.85386 10.05606,1.60923 0.2642,-1.651 -2.14029,-0.5734 -0.46676,-0.69043 4.04107,-25.25271 -1.651,-0.2642 -5.95413,0.8944 -0.23418,1.46338 2.70163,0.43233 -3.53068,22.06329 -0.60938,0.44125 -2.21234,-0.12313 -0.2642,1.65099"
         style="font-size:38px;font-weight:bold;-inkscape-font-specification:Bitstream Charter Bold"
         id="path4415"
         inkscape:connector-curvature="0" />
      <path
         d="m 370.0591,299.75522 c -5.7773,-1.48858 -10.49782,1.29772 -11.95797,6.96462 -1.4317,5.55652 1.33677,10.19396 6.85649,11.61618 5.81409,1.49807 10.48834,-1.26092 11.89159,-6.70703 1.50755,-5.8509 -1.16,-10.4231 -6.79011,-11.87377 m -0.64971,1.91238 c 2.61267,0.67318 3.6322,3.722 2.39013,8.54255 -1.23259,4.78375 -3.50593,6.90564 -6.22899,6.20401 -2.57587,-0.6637 -3.5586,-3.70304 -2.31653,-8.52358 1.22311,-4.74696 3.54273,-6.89616 6.15539,-6.22298"
         style="font-size:38px;font-weight:bold;-inkscape-font-specification:Bitstream Charter Bold"
         id="path4417"
         inkscape:connector-curvature="0" />
      <path
         d="m 399.80348,312.91183 c -0.24764,-2.01168 -1.28061,-3.45221 -3.02443,-4.20658 -1.53457,-0.66384 -3.69516,-0.64623 -6.67026,-0.27711 l 0.89016,-2.05772 -1.67407,-0.72419 -5.6267,-0.48813 -0.60349,1.39506 2.26697,0.98068 -5.20515,12.0324 -0.71458,0.31192 -1.83905,-0.62995 -0.67893,1.56944 8.54474,3.69642 0.67893,-1.56945 -1.40446,-0.77317 -0.26196,-0.73438 4.97884,-11.50924 c 1.29709,0.0643 2.36416,0.27746 3.2012,0.63956 2.23209,0.96559 2.641,2.50879 1.58488,4.95015 l -3.66624,8.47499 -0.74475,0.38167 -1.49029,-0.47907 -0.67893,1.56944 8.23085,3.56063 0.66385,-1.53457 -1.49401,-0.85332 -0.26196,-0.73437 4.94867,-11.43949 c 1.33197,0.0794 2.41413,0.25768 3.28604,0.63486 2.30184,0.99577 2.71075,2.53897 1.5792,5.1547 l -3.60589,8.33549 -0.71458,0.31192 -1.56004,-0.50925 -0.67893,1.56944 8.57962,3.7115 0.67893,-1.56944 -1.7881,-0.93914 -0.22709,-0.71928 4.04342,-9.34691 c 1.6747,-3.87128 0.90019,-6.48352 -2.34333,-7.88664 -1.29042,-0.55824 -3.71494,-0.6962 -7.19908,-0.29887"
         style="font-size:38px;font-weight:bold;-inkscape-font-specification:Bitstream Charter Bold"
         id="path4419"
         inkscape:connector-curvature="0" />
      <path
         d="m 418.9756,339.38208 -0.73294,2.09724 5.72925,3.59548 0.88877,-1.41622 -1.6049,-1.23149 -0.13564,-0.71321 5.23162,-8.33637 c 2.58552,-4.1199 2.0625,-6.64643 -2.44364,-9.47433 -4.24865,-2.66631 -8.20847,-2.50443 -9.35983,-0.66979 -0.54538,0.86904 -0.23239,1.5141 0.73321,2.12008 l 2.96118,1.85834 1.89874,-3.02556 c 0.66016,0.23484 1.18336,0.47346 1.66616,0.77645 2.12432,1.33315 2.41136,2.94891 0.95701,5.26636 l -0.60598,0.9656 c -7.67639,-2.70888 -11.31992,-3.6944 -13.64284,0.007 -1.53515,2.44619 -0.88783,5.27504 1.59055,6.83039 1.73808,1.09076 3.94076,1.44123 6.86928,1.34995 m 0.82817,-1.31965 c -1.65927,-0.14404 -2.89124,-0.46855 -3.72809,-0.99373 -1.48059,-0.92917 -1.79604,-2.42817 -0.86687,-3.90876 1.33315,-2.12433 3.56424,-1.89062 7.88745,-0.34395 l -3.29249,5.24644"
         style="font-size:38px;font-weight:bold;-inkscape-font-specification:Bitstream Charter Bold"
         id="path4421"
         inkscape:connector-curvature="0" />
      <path
         d="m 436.35645,334.916 -6.74009,8.76645 c -1.18125,1.53638 -1.8923,2.52356 -1.37064,4.0271 0.32229,1.01472 0.9967,1.82085 1.99083,2.58519 1.23514,0.94963 3.03327,1.85279 5.35034,2.57975 l 1.11177,-1.44601 c -0.71831,-0.31261 -1.39727,-0.73876 -2.12027,-1.29465 -1.98827,-1.52867 -1.89819,-2.70569 -0.2537,-4.84458 l 5.76729,-7.50118 4.45854,3.42795 1.38971,-1.80752 -4.45854,-3.42794 2.87207,-3.73553 -1.89789,-1.4592 -3.97535,1.92861 -3.20206,-0.44871 -0.88015,1.14476 1.95814,1.50551"
         style="font-size:38px;font-weight:bold;-inkscape-font-specification:Bitstream Charter Bold"
         id="path4423"
         inkscape:connector-curvature="0" />
      <path
         d="m 457.83784,337.24041 c -1.16617,-1.03316 -2.85427,-0.90414 -3.93783,0.31891 -1.10875,1.2515 -0.92609,2.93636 0.21163,3.94432 1.19462,1.05835 2.88597,0.98298 4.01992,-0.29696 1.03315,-1.16617 0.98622,-2.83232 -0.29372,-3.96627 m -5.43248,6.76223 -5.19484,-2.21622 -1.00795,1.13773 1.87725,1.66313 -8.69363,9.81289 -0.77619,0.0739 -1.63673,-1.24697 -1.13395,1.27995 7.45211,6.60211 1.13395,-1.27994 -1.49202,-1.52491 -0.0487,-0.80463 10.88593,-12.28745 -1.36527,-1.20955"
         style="font-size:38px;font-weight:bold;-inkscape-font-specification:Bitstream Charter Bold"
         id="path4425"
         inkscape:connector-curvature="0" />
      <path
         d="m 457.18198,372.88901 1.94846,-1.8662 c -2.11123,-0.55618 -3.75825,-1.45174 -4.88848,-2.63179 -2.44446,-2.55221 -2.09935,-6.09245 1.19383,-9.24658 3.12851,-2.99643 6.70778,-3.21488 8.54769,-1.29387 0.18399,0.19211 0.36682,0.43794 0.57478,0.76494 l -2.90897,2.78615 c 0.11636,0.83568 0.4511,1.5148 1.02936,2.11855 1.13023,1.18006 2.68834,1.21366 3.75862,0.18856 1.67403,-1.60335 1.36166,-4.56648 -1.34564,-7.39312 -3.94267,-4.11647 -9.71782,-4.26789 -13.88917,-0.27265 -3.97925,3.81124 -4.25398,9.07308 -0.44273,13.05233 1.6822,1.75636 3.77954,2.95728 6.42225,3.79368"
         style="font-size:38px;font-weight:bold;-inkscape-font-specification:Bitstream Charter Bold"
         id="path4427"
         inkscape:connector-curvature="0" />
      <path
         d="m 490.69438,377.41128 -24.38932,5.82995 -1.54275,-1.71327 -1.55321,1.02692 4.5059,6.81512 1.55321,-1.02693 -1.09844,-2.14369 0.2025,-0.58943 6.61445,-1.63995 4.56877,6.91021 -4.13123,5.46469 -0.55878,0.0506 -1.51053,-1.87125 -1.55321,1.02693 5.65857,8.55852 1.55321,-1.02693 -0.91952,-2.07977 14.80093,-20.26338 -2.20055,-3.32831 m -3.88159,3.56856 -5.96422,7.99768 -3.68855,-5.57888 9.65277,-2.4188"
         style="font-size:38px;font-weight:bold;-inkscape-font-specification:Bitstream Charter Bold"
         id="path4429"
         inkscape:connector-curvature="0" />
      <path
         d="m 477.5543,404.63715 4.09454,8.44581 1.53871,-0.74597 -0.59262,-1.57083 0.28083,-0.72736 11.28387,-5.47045 c 1.00606,1.117 1.74169,2.11174 2.15612,2.96657 1.04436,2.1542 0.32936,3.64105 -2.20097,4.86775 l -8.17226,3.96193 -0.74498,-0.23005 -0.84959,-1.40401 -1.53871,0.74597 4.06139,8.37742 1.53871,-0.74597 -0.74181,-1.87857 0.2974,-0.69317 9.16388,-4.44267 c 3.79548,-1.84006 4.94673,-4.25632 3.42164,-7.40213 -0.72939,-1.50451 -2.40997,-3.05466 -4.9205,-4.83589 l 2.01742,-0.97805 -0.7957,-1.64129 -3.9942,-4.14475 -1.36774,0.66309 1.12724,2.32516 -11.79677,5.7191 -0.74499,-0.23005 -0.9822,-1.67756 -1.53871,0.74597"
         style="font-size:38px;font-weight:bold;-inkscape-font-specification:Bitstream Charter Bold"
         id="path4431"
         inkscape:connector-curvature="0" />
      <path
         d="m 487.46412,425.42634 2.97729,8.90128 1.62169,-0.54242 -0.38622,-1.63387 0.37181,-0.68533 11.8924,-3.97776 c 0.85446,1.23684 1.4564,2.31772 1.75775,3.21866 0.75939,2.27036 -0.14044,3.65321 -2.80722,4.54519 l -8.61298,2.88085 -0.70931,-0.32371 -0.66247,-1.5014 -1.62169,0.54242 2.95318,8.8292 1.62169,-0.54242 -0.4947,-1.95821 0.38387,-0.64929 9.65806,-3.23042 c 4.00017,-1.33797 5.45187,-3.58659 4.34292,-6.90204 -0.53036,-1.58565 -1.9982,-3.33857 -4.25949,-5.42714 l 2.12622,-0.71117 -0.57858,-1.72981 -3.42951,-4.62288 -1.44151,0.48215 0.81966,2.45056 -12.43296,4.15856 -0.70931,-0.32372 -0.7589,-1.7897 -1.62169,0.54242"
         style="font-size:38px;font-weight:bold;-inkscape-font-specification:Bitstream Charter Bold"
         id="path4433"
         inkscape:connector-curvature="0" />
      <path
         d="m 502.67765,463.50474 c -1.8211,-1.87565 -2.90438,-3.74783 -3.31002,-5.72056 -0.75772,-3.6849 1.2988,-6.51307 5.57924,-7.39324 0.0372,-0.008 0.0744,-0.0153 0.11167,-0.023 l 2.50275,12.17135 c 0.22333,-0.0459 0.48387,-0.0995 0.7072,-0.14542 5.35986,-1.10213 7.82267,-4.59578 6.82004,-9.47175 -1.10213,-5.35986 -5.7987,-8.39001 -11.49354,-7.219 -5.6204,1.1557 -8.59247,5.56876 -7.45208,11.11472 0.53576,2.60548 1.81595,5.0579 3.78037,7.25323 l 2.75437,-0.56637 m 5.85373,-6.24704 -1.46185,-7.10926 c 3.26121,-0.55421 5.43607,0.58918 5.89529,2.82246 0.42095,2.04716 -0.93464,3.56735 -4.024,4.20261 -0.14889,0.0306 -0.26055,0.0536 -0.40944,0.0842"
         style="font-size:38px;font-weight:bold;-inkscape-font-specification:Bitstream Charter Bold"
         id="path4435"
         inkscape:connector-curvature="0" />
      <path
         d="m 516.7959,464.5202 -1.7407,0.15967 -0.10488,2.18471 -7.04792,5.95064 -7.2595,-4.67646 -0.62104,-2.19444 -1.66501,0.15272 0.67336,7.34118 1.66501,-0.15272 0.20139,-1.96461 5.54835,3.07808 -4.76527,3.79513 -0.39229,-0.11666 -0.46205,-1.2932 -1.47581,0.13537 0.81221,8.85483 1.66501,-0.15273 0.15661,-2.03682 7.61867,-6.38458 6.72591,4.26748 0.45579,2.05697 1.7407,-0.15967 -0.63866,-6.96277 -1.66501,0.15273 -0.16355,1.96113 -5.03212,-2.85831 4.22542,-3.44033 0.43361,0.15102 0.35894,1.41714 1.58933,-0.14578 -0.8365,-9.11972"
         style="font-size:38px;font-weight:bold;-inkscape-font-specification:Bitstream Charter Bold"
         id="path4437"
         inkscape:connector-curvature="0" />
    </g>
    <g
       style="font-size:38px;font-style:normal;font-variant:normal;font-weight:bold;font-stretch:normal;text-align:center;line-height:614.00022507%;letter-spacing:0px;word-spacing:0px;text-anchor:middle;fill:#000000;fill-opacity:1;stroke:none;font-family:Bitstream Charter;-inkscape-font-specification:Bitstream Charter Bold"
       id="text3863"
       transform="matrix(0.31342317,0,0,0.31342317,2.3119083,-69.442119)"
       inkscape:export-filename="/home/phooky/Projects/Diplomat/stamp.png"
       inkscape:export-xdpi="600"
       inkscape:export-ydpi="600">
      <path
         d="m 154.427,547.57552 -3.59643,-10.49699 -1.76148,0.60351 0.57156,2.25444 -0.37811,0.77225 -19.08872,6.54008 -0.77224,-0.37811 -0.93105,-2.13129 -1.76148,0.60351 3.59643,10.497 c 1.23165,3.59486 2.69462,6.10626 5.18378,7.74388 3.22645,2.14821 7.05103,2.52493 11.29296,1.07158 7.5492,-2.58647 10.50221,-8.73979 7.64478,-17.07986 m -3.0354,-2.29401 0.71436,2.08502 c 1.95833,5.71583 -0.36463,9.60468 -7.12296,11.92019 -6.75833,2.31551 -11.01399,0.68058 -12.97231,-5.03524 l -0.71436,-2.08502 20.09527,-6.88495"
         style="font-family:Bitstream Charter;-inkscape-font-specification:Bitstream Charter Bold"
         id="path4440"
         inkscape:connector-curvature="0" />
      <path
         d="m 147.72854,584.78076 c -2.22258,-1.37644 -3.72865,-2.92896 -4.60188,-4.7438 -1.63113,-3.38999 -0.32417,-6.63339 3.6137,-8.52814 0.0342,-0.0165 0.0685,-0.033 0.10272,-0.0494 l 5.38768,11.19725 c 0.20546,-0.0989 0.44515,-0.21419 0.65061,-0.31304 4.93089,-2.37256 6.47011,-6.36026 4.31174,-10.84601 -2.37255,-4.93089 -7.66504,-6.72787 -12.90411,-4.20703 -5.17059,2.48788 -6.98018,7.49125 -4.52524,12.59336 1.15332,2.39696 2.9915,4.46441 5.43084,6.11607 l 2.53394,-1.21923 m 4.1587,-7.4831 -3.14693,-6.54029 c 3.02851,-1.33069 5.41615,-0.75056 6.40471,1.30398 0.90619,1.88333 -0.039,3.68756 -2.88111,5.05507 -0.13697,0.0659 -0.2397,0.11534 -0.37667,0.18124"
         style="font-family:Bitstream Charter;-inkscape-font-specification:Bitstream Charter Bold"
         id="path4442"
         inkscape:connector-curvature="0" />
      <path
         d="m 137.35229,593.1092 5.34202,8.62578 1.5061,-0.88804 -1.13125,-2.11533 0.15217,-0.7647 5.16901,-3.20121 c 0.53102,1.14614 1.00662,2.05843 1.44678,2.76916 3.24123,5.23362 8.66187,6.48038 13.83087,3.27917 4.52288,-2.80105 5.96366,-7.40321 3.84286,-10.82767 -0.98037,-1.58301 -2.69149,-2.75816 -5.1965,-3.84392 l 1.93838,-1.20046 -0.90034,-1.45378 -4.4395,-3.77636 -1.29225,0.8003 1.38052,2.22913 -18.15614,11.24426 -0.7647,-0.15218 -1.24194,-1.6445 -1.48609,0.92035 m 12.81489,0.55608 10.79031,-6.68253 c 0.9879,0.7291 1.73424,1.42901 2.19442,2.17206 1.62061,2.61681 0.70262,5.46489 -2.75416,7.6057 -3.87675,2.4009 -7.41556,1.95538 -9.17622,-0.88757 -0.40016,-0.64612 -0.7557,-1.36457 -1.05435,-2.20766"
         style="font-family:Bitstream Charter;-inkscape-font-specification:Bitstream Charter Bold"
         id="path4444"
         inkscape:connector-curvature="0" />
      <path
         d="m 156.52695,607.68259 6.07722,8.17199 1.34166,-0.99776 -1.13226,-1.90462 0.14774,-0.8202 20.52144,-15.26106 -0.99775,-1.34167 -4.88774,-3.51591 -1.18921,0.88437 1.63269,2.19546 -17.92958,13.33358 -0.74436,-0.10942 -1.49818,-1.63251 -1.34167,0.99775"
         style="font-family:Bitstream Charter;-inkscape-font-specification:Bitstream Charter Bold"
         id="path4446"
         inkscape:connector-curvature="0" />
      <path
         d="m 178.61327,627.33678 c -2.50863,-0.73568 -4.3734,-1.83167 -5.6979,-3.34887 -2.47407,-2.83401 -2.07689,-6.30821 1.21514,-9.18213 0.0286,-0.025 0.0573,-0.05 0.0859,-0.075 l 8.17193,9.36083 c 0.17176,-0.14995 0.37214,-0.32488 0.5439,-0.47483 4.12219,-3.59864 4.54528,-7.85211 1.27151,-11.60216 -3.59864,-4.12219 -9.17845,-4.4467 -13.55828,-0.62314 -4.32258,3.77358 -4.73614,9.07804 -1.01254,13.34336 1.74934,2.00385 4.07122,3.50788 6.86201,4.45122 l 2.11835,-1.84931 m 2.01848,-8.3197 -4.77321,-5.46764 c 2.56546,-2.0883 5.0214,-2.16415 6.52084,-0.44657 1.37448,1.57445 0.94324,3.56509 -1.43274,5.63931 -0.11451,0.1 -0.20039,0.17494 -0.31489,0.2749"
         style="font-family:Bitstream Charter;-inkscape-font-specification:Bitstream Charter Bold"
         id="path4448"
         inkscape:connector-curvature="0" />
      <path
         d="m 189.21864,622.20794 -7.69736,7.93914 c -1.34902,1.3914 -2.16819,2.29089 -1.82169,3.84418 0.20427,1.04489 0.78218,1.92278 1.6825,2.79567 1.11857,1.08451 2.80176,2.18717 5.02063,3.17404 l 1.26967,-1.30955 c -0.6779,-0.39262 -1.30374,-0.89353 -1.95851,-1.52837 -1.80063,-1.74579 -1.57669,-2.9048 0.30136,-4.84184 l 6.58641,-6.79329 4.03777,3.91481 1.58709,-1.63693 -4.03778,-3.91481 3.27998,-3.38301 -1.71879,-1.66644 -4.16962,1.46189 -3.12985,-0.81155 -1.00515,1.03672 1.77334,1.71934"
         style="font-family:Bitstream Charter;-inkscape-font-specification:Bitstream Charter Bold"
         id="path4450"
         inkscape:connector-curvature="0" />
      <path
         d="m 208.30922,623.80485 c -1.18416,-1.01248 -2.86974,-0.85379 -3.93161,0.38813 -1.08656,1.27081 -0.8743,2.9522 0.28098,3.93999 1.21305,1.03717 2.90281,0.93206 4.01407,-0.36763 1.01248,-1.18416 0.93625,-2.84923 -0.36344,-3.96049 m -5.31269,6.85674 -5.23301,-2.12449 -0.98779,1.15528 1.90621,1.62985 -8.51967,9.9643 -0.77477,0.0875 -1.6584,-1.21799 -1.11127,1.2997 7.5671,6.47 1.11126,-1.29969 -1.51862,-1.49843 -0.0628,-0.80365 10.66811,-12.47704 -1.38634,-1.18535"
         style="font-family:Bitstream Charter;-inkscape-font-specification:Bitstream Charter Bold"
         id="path4452"
         inkscape:connector-curvature="0" />
      <path
         d="m 214.6339,639.59886 c -4.84152,-3.48607 -10.25182,-2.60546 -13.67129,2.14355 -3.35285,4.6565 -2.45866,9.98292 2.167,13.31357 4.87236,3.50828 10.22962,2.6363 13.51586,-1.92769 3.53048,-4.9032 2.70661,-10.13217 -2.01157,-13.52943 m -1.30018,1.54559 c 2.18948,1.5765 2.03151,4.78739 -0.87725,8.82713 -2.88656,4.00891 -5.77553,5.15973 -8.05752,3.51661 -2.15864,-1.5543 -1.96983,-4.74299 0.93893,-8.78273 2.86435,-3.97807 5.80636,-5.13752 7.99584,-3.56101"
         style="font-family:Bitstream Charter;-inkscape-font-specification:Bitstream Charter Bold"
         id="path4454"
         inkscape:connector-curvature="0" />
      <path
         d="m 213.22314,661.82518 8.18318,4.59702 0.83752,-1.49086 -1.38329,-0.95143 -0.18465,-0.75751 6.14176,-10.93299 c 1.46368,0.3428 2.63552,0.73958 3.46377,1.20487 2.08721,1.17251 2.34894,2.80145 0.9717,5.25309 l -4.44813,7.91814 -0.74299,0.2364 -1.49905,-0.66777 -0.83752,1.49086 8.11692,4.55979 0.83752,-1.49086 -1.68146,-1.11893 -0.15153,-0.7389 4.98786,-8.87891 c 2.06586,-3.67746 1.63176,-6.31853 -1.41622,-8.03078 -1.45774,-0.8189 -3.72249,-1.13228 -6.80058,-1.1616 l 1.09807,-1.95469 -1.59025,-0.89335 -5.6455,-1.12292 -0.74445,1.32521 2.25286,1.26558 -6.42094,11.42995 -0.74299,0.23639 -1.76409,-0.81666 -0.83752,1.49086"
         style="font-family:Bitstream Charter;-inkscape-font-specification:Bitstream Charter Bold"
         id="path4456"
         inkscape:connector-curvature="0" />
      <path
         d="m 251.81417,653.48177 -0.61084,1.75896 2.0556,0.91498 0.39983,0.70201 -6.64438,19.13313 -0.77381,0.3749 -2.18026,-0.55601 -0.61083,1.75896 10.12297,3.51541 0.61083,-1.75896 -2.12739,-0.93991 -0.37489,-0.77381 2.80485,-8.07683 c 0.21538,0.0748 0.43076,0.14959 0.61025,0.21192 3.6256,1.25906 4.02288,3.12676 3.95142,6.92342 -0.024,1.92251 -0.26191,3.65008 1.1061,5.73419 0.62467,0.98123 1.80327,1.87324 3.34685,2.40927 1.1128,0.38645 2.3707,0.7026 3.68943,0.95943 l 0.59837,-1.72306 c -0.17949,-0.0623 -0.32308,-0.1122 -0.46666,-0.16206 -2.4051,-0.83522 -3.29503,-1.74766 -3.36324,-3.98378 -0.0587,-2.03171 0.32725,-4.06988 -0.23706,-6.03579 -0.42672,-1.43543 -1.41036,-2.54132 -2.9963,-3.53455 4.31815,0.65482 7.15911,-0.69172 8.30598,-3.99425 1.38373,-3.98457 -0.74008,-7.13568 -6.30412,-9.0679 l -10.9127,-3.78967 m 6.64833,4.60166 1.65127,0.57344 c 3.48201,1.2092 4.73932,3.49624 3.71711,6.43979 -1.14687,3.30253 -3.5012,4.17444 -7.34218,2.84058 -0.39486,-0.13713 -0.82563,-0.28672 -1.27983,-0.48467 l 3.25363,-9.36914"
         style="font-family:Bitstream Charter;-inkscape-font-specification:Bitstream Charter Bold"
         id="path4458"
         inkscape:connector-curvature="0" />
      <path
         d="m 285.75954,684.87992 c -2.4576,0.89143 -4.60939,1.11141 -6.5749,0.67214 -3.67142,-0.82053 -5.40711,-3.85619 -4.45397,-8.12097 0.008,-0.0371 0.0166,-0.0742 0.0249,-0.11126 l 12.12684,2.71022 c 0.0497,-0.22251 0.10774,-0.4821 0.15747,-0.70461 1.19349,-5.34026 -0.98244,-9.01943 -5.84058,-10.10518 -5.34026,-1.19349 -10.03029,1.84678 -11.29837,7.5208 -1.25151,5.59985 1.55402,10.1206 7.0797,11.35553 2.59596,0.58017 5.35769,0.41864 8.16563,-0.47237 l 0.61332,-2.7443 m -3.29605,-7.90112 -7.08326,-1.58304 c 0.83232,-3.20154 2.76722,-4.71598 4.99233,-4.2187 2.03968,0.45585 2.87001,2.31574 2.1821,5.3938 -0.0332,0.14834 -0.058,0.25959 -0.0912,0.40794"
         style="font-family:Bitstream Charter;-inkscape-font-specification:Bitstream Charter Bold"
         id="path4460"
         inkscape:connector-curvature="0" />
      <path
         d="m 303.39486,673.92856 c -1.75991,-0.97331 -3.45569,-1.51812 -5.07839,-1.70992 -5.01906,-0.59324 -8.38802,1.68709 -8.84298,5.53629 -0.32115,2.71708 1.05624,4.98444 4.01036,6.21369 -1.54347,1.08029 -2.35209,2.09439 -2.49929,3.33972 -0.0624,0.52832 0.0127,1.1877 0.26757,1.94485 -2.44195,-0.059 -4.10105,1.35197 -4.37759,3.69168 -0.36576,3.09446 2.21922,5.50454 7.20055,6.09332 6.0757,0.71812 10.52155,-1.93235 10.94083,-5.47965 0.37913,-3.20767 -2.27962,-4.66987 -7.65786,-6.10911 l -2.52599,-0.64294 c -0.0309,-0.3863 -0.0285,-0.73039 0.007,-1.03229 0.0535,-0.45285 0.22026,-0.89232 0.46693,-1.3606 0.37291,0.0823 0.75029,0.12695 1.08992,0.16709 4.98132,0.58877 8.31254,-1.69601 8.74074,-5.31879 0.11597,-0.98117 -0.0367,-1.95582 -0.48677,-3.0039 l 4.07563,0.48173 0.25425,-2.15103 -5.58513,-0.66014 m -5.36351,0.0548 c 1.66044,0.19626 2.78945,1.97508 2.4683,4.69217 -0.33899,2.86803 -1.82724,4.45229 -3.60089,4.24265 -1.81139,-0.2141 -2.89374,-2.06393 -2.55475,-4.93197 0.32561,-2.75482 1.80048,-4.22587 3.68734,-4.00285 m -4.52631,15.95701 3.14522,0.90746 c 2.62583,0.76954 3.95966,1.4629 3.7411,3.31203 -0.22748,1.9246 -2.19293,3.33766 -4.91002,3.01651 -2.52839,-0.29884 -4.17234,-2.25332 -3.93148,-4.29114 0.14273,-1.20759 0.79595,-2.20179 1.95518,-2.94486"
         style="font-family:Bitstream Charter;-inkscape-font-specification:Bitstream Charter Bold"
         id="path4462"
         inkscape:connector-curvature="0" />
      <path
         d="m 313.92828,664.77681 c -1.55692,-0.0577 -2.77919,1.11376 -2.83975,2.74664 -0.062,1.67085 1.14892,2.85654 2.66788,2.91288 1.5949,0.0592 2.85373,-1.07297 2.9171,-2.7818 0.0577,-1.55692 -1.0364,-2.81434 -2.74523,-2.87772 m 0.0966,8.67354 -5.42051,1.58619 -0.0563,1.51896 2.50628,0.0929 -0.4859,13.10099 -0.55276,0.54989 -2.05622,0.0758 -0.0634,1.70883 9.94916,0.369 0.0634,-1.70883 -2.1209,-0.23076 -0.54849,-0.59074 0.60843,-16.40472 -1.82275,-0.0676"
         style="font-family:Bitstream Charter;-inkscape-font-specification:Bitstream Charter Bold"
         id="path4464"
         inkscape:connector-curvature="0" />
      <path
         d="m 328.7124,673.23185 c -5.95984,0.27105 -9.65574,4.31916 -9.38986,10.16511 0.2607,5.73207 4.26739,9.35377 9.9615,9.0948 5.99779,-0.27278 9.65746,-4.2812 9.40194,-9.89938 -0.27451,-6.03576 -4.16559,-9.62468 -9.97358,-9.36053 m -0.0603,2.01882 c 2.69521,-0.12258 4.56399,2.49322 4.79016,7.46608 0.22444,4.93489 -1.32671,7.63016 -4.13581,7.75791 -2.65725,0.12086 -4.48806,-2.49667 -4.71423,-7.46952 -0.22272,-4.89694 1.36467,-7.63189 4.05988,-7.75447"
         style="font-family:Bitstream Charter;-inkscape-font-specification:Bitstream Charter Bold"
         id="path4466"
         inkscape:connector-curvature="0" />
      <path
         d="m 341.39987,691.53842 9.26979,-1.47237 -0.26824,-1.68882 -1.67514,0.11216 -0.61483,-0.47949 -1.96712,-12.38475 c 1.36055,-0.63934 2.52573,-1.05527 3.46397,-1.20429 2.36436,-0.37555 3.58033,0.73952 4.02144,3.5167 l 1.42467,8.96956 -0.436,0.6464 -1.58992,0.40644 0.26824,1.68883 9.19474,-1.46044 -0.26824,-1.68883 -2.01291,0.16581 -0.5773,-0.48545 -1.59754,-10.05792 c -0.66167,-4.16577 -2.64083,-5.96762 -6.09354,-5.41921 -1.6513,0.26228 -3.62182,1.42175 -6.05394,3.30863 l -0.35169,-2.21424 -1.80142,0.28612 -5.12409,2.62227 0.23844,1.50118 2.55201,-0.40534 2.05653,12.94769 -0.43599,0.6464 -1.89017,0.45413 0.26825,1.68883"
         style="font-family:Bitstream Charter;-inkscape-font-specification:Bitstream Charter Bold"
         id="path4468"
         inkscape:connector-curvature="0" />
      <path
         d="m 366.49087,660.99689 0.60568,1.76074 2.18187,-0.54962 0.74799,0.30529 6.58833,19.15251 -0.37717,0.77271 -2.05826,0.90895 0.60568,1.76074 11.10342,-3.8195 c 5.89307,-2.02717 8.18996,-5.63027 6.6325,-10.15788 -1.21136,-3.52147 -4.30105,-4.90995 -8.52998,-3.5356 3.10465,-2.07262 4.16197,-4.60634 3.19783,-7.40915 -1.28553,-3.73707 -4.59973,-4.72684 -9.91787,-2.89744 l -10.78002,3.70825 m 11.04988,8.17419 -2.99133,-8.69589 c 0.49071,-0.20898 0.94548,-0.40561 1.41262,-0.5663 3.37773,-1.16191 5.45209,-0.38861 6.41624,2.41419 1.11247,3.234 -0.1179,5.26466 -3.85497,6.55019 -0.3234,0.11125 -0.6468,0.22249 -0.98256,0.29781 m 3.90602,11.35495 -3.1891,-9.27081 c 0.98142,-0.41797 1.77195,-0.68991 2.34689,-0.88769 3.59333,-1.23608 5.90916,-0.34492 6.95983,2.70942 1.18664,3.4496 -0.19982,5.49378 -4.3681,6.92763 -0.539,0.18541 -1.12629,0.34725 -1.74952,0.52145"
         style="font-family:Bitstream Charter;-inkscape-font-specification:Bitstream Charter Bold"
         id="path4470"
         inkscape:connector-curvature="0" />
      <path
         d="m 388.3013,660.93627 0.69705,1.47786 2.20803,-0.6633 13.34754,12.44305 c 0.11341,2.46739 -0.14992,4.3142 -0.70309,5.45742 l -3.96272,-0.65182 c -0.8586,1.11922 -1.10634,2.28644 -0.63624,3.28314 0.616,1.30601 2.47123,1.9435 4.1553,1.14919 2.26834,-1.06989 3.63864,-4.48919 3.40988,-9.33902 l -0.96953,-19.24763 1.71003,-1.18469 -0.69705,-1.47786 -6.59883,3.11241 0.69705,1.47786 1.91882,-0.65294 0.55248,0.36964 0.82515,11.45897 -8.29941,-7.97566 0.11674,-0.64327 1.65555,-1.03295 -0.69705,-1.47786 -8.7297,4.11746"
         style="font-family:Bitstream Charter;-inkscape-font-specification:Bitstream Charter Bold"
         id="path4472"
         inkscape:connector-curvature="0" />
      <path
         d="m 419.16015,675.93056 8.6703,-5.26947 -0.87538,-1.5135 -2.12474,1.11347 -0.7634,-0.15859 -3.15773,-5.19568 c 1.15055,-0.52139 2.0668,-0.98931 2.7812,-1.4235 5.26063,-3.1972 6.55282,-8.60719 3.39509,-13.80287 -2.76301,-4.54622 -7.35292,-6.02556 -10.79505,-3.93356 -1.59118,0.96705 -2.78064,2.66825 -3.88738,5.16406 l -1.18415,-1.94838 -1.46129,0.88811 -3.81348,4.40766 0.78944,1.29892 2.24064,-1.36177 11.09153,18.24984 -0.15858,0.7634 -1.65487,1.2281 0.90785,1.49376 m 0.66358,-12.80978 -6.59177,-10.84599 c 0.73736,-0.98175 1.44351,-1.7222 2.19039,-2.17612 2.63031,-1.5986 5.47059,-0.65675 7.58232,2.81786 2.3683,3.89676 1.89311,7.43171 -0.96452,9.16846 -0.64946,0.39472 -1.37086,0.74423 -2.21642,1.03579"
         style="font-family:Bitstream Charter;-inkscape-font-specification:Bitstream Charter Bold"
         id="path4474"
         inkscape:connector-curvature="0" />
      <path
         d="m 442.32689,647.89432 1.70949,1.41888 5.36914,-4.11388 -1.01691,-1.32721 -1.71424,1.0741 -0.71569,-0.12184 -5.98592,-7.8124 c -2.95829,-3.86095 -5.50847,-4.25273 -9.73139,-1.0171 -3.9816,3.05074 -5.2121,6.81801 -3.89473,8.53734 0.62401,0.81442 1.33775,0.74627 2.24266,0.0529 l 2.77506,-2.12627 -2.17249,-2.83539 c 0.4505,-0.53667 0.85673,-0.94367 1.30918,-1.29034 1.99081,-1.52537 3.60513,-1.23037 5.26917,0.94141 l 0.69335,0.90491 c -5.21796,6.24803 -7.41328,9.3184 -4.75544,12.78723 1.75649,2.29244 4.63336,2.67325 6.95597,0.89365 1.62884,-1.24803 2.72611,-3.18983 3.66279,-5.96601 m -0.94758,-1.23672 c -0.71415,1.50463 -1.44828,2.54585 -2.23253,3.14675 -1.38753,1.06313 -2.90236,0.83551 -3.96549,-0.55202 -1.52537,-1.9908 -0.5276,-3.99998 2.43081,-7.51141 l 3.76721,4.91668"
         style="font-family:Bitstream Charter;-inkscape-font-specification:Bitstream Charter Bold"
         id="path4476"
         inkscape:connector-curvature="0" />
      <path
         d="m 448.42663,621.42962 c -1.86046,0.84371 -3.46055,1.91242 -4.85398,3.20406 -3.42783,3.17746 -3.83476,6.81899 -1.61313,9.21569 1.54998,1.67211 3.51315,1.66586 6.53124,0.78535 3.18123,-0.92809 4.94447,-2.04439 6.33945,-0.53949 1.13665,1.22622 0.99604,2.80736 -0.50886,4.20234 -0.83605,0.77499 -1.79721,1.30323 -2.88345,1.58473 l -0.56285,-0.0482 -2.52819,-2.11254 -1.69998,1.57582 3.82328,4.12454 c 2.16701,-1.12787 3.90645,-2.32574 5.24414,-3.56572 3.59504,-3.33246 4.03187,-7.05352 1.42274,-9.86825 -1.85997,-2.00653 -4.14597,-1.2865 -7.73709,-0.18572 -2.3934,0.71596 -3.7801,1.12051 -4.86508,-0.05 -0.95582,-1.03114 -0.79753,-2.36961 0.56803,-3.63542 0.64098,-0.59416 1.40909,-0.99528 2.25266,-1.25908 l 0.61858,-0.003 2.21616,1.83182 1.67211,-1.54998 -3.43578,-3.70652"
         style="font-family:Bitstream Charter;-inkscape-font-specification:Bitstream Charter Bold"
         id="path4478"
         inkscape:connector-curvature="0" />
      <path
         d="m 458.9261,610.05825 c -1.78268,0.99761 -3.28695,2.19744 -4.56649,3.60199 -3.14767,3.45521 -3.24606,7.11808 -0.83022,9.31889 1.68546,1.53545 3.64111,1.36366 6.5742,0.23178 3.09163,-1.19306 4.75445,-2.45408 6.27137,-1.07217 1.236,1.12599 1.22924,2.71336 -0.15266,4.23028 -0.76773,0.84273 -1.68091,1.45015 -2.73954,1.82225 l -0.56491,-5.9e-4 -2.69734,-1.89181 -1.56104,1.71356 4.15749,3.78744 c 2.06417,-1.30661 3.6964,-2.64689 4.92476,-3.99527 3.30121,-3.62375 3.42269,-7.3684 0.58549,-9.95307 -2.02256,-1.84253 -4.2397,-0.93229 -7.7252,0.46741 -2.32449,0.91524 -3.67213,1.4353 -4.85196,0.36049 -1.03937,-0.94686 -0.99451,-2.29391 0.25943,-3.67038 0.58859,-0.64609 1.32014,-1.11055 2.13845,-1.44456 l 0.6161,-0.0556 2.36274,1.6384 1.53545,-1.68547 -3.73612,-3.40358"
         style="font-family:Bitstream Charter;-inkscape-font-specification:Bitstream Charter Bold"
         id="path4480"
         inkscape:connector-curvature="0" />
      <path
         d="m 458.88412,598.82221 1.55604,1.02263 1.7585,-1.84545 24.17214,5.56392 2.10788,-3.20735 -14.7697,-19.80145 0.94373,-2.33545 -1.55604,-1.02263 -4.57055,6.95454 1.55604,1.02264 1.41098,-1.80101 0.70591,-0.0363 11.12061,14.62948 -17.94513,-4.2453 -0.24677,-0.66236 1.05169,-1.9462 -1.55604,-1.02263 -5.73929,8.73288"
         style="font-family:Bitstream Charter;-inkscape-font-specification:Bitstream Charter Bold"
         id="path4482"
         inkscape:connector-curvature="0" />
      <path
         d="m 472.30674,573.42309 c -0.7362,1.37308 -0.22117,2.98587 1.2189,3.75799 1.47355,0.79007 3.07081,0.22359 3.78905,-1.11601 0.75417,-1.40657 0.29058,-3.03489 -1.21647,-3.84292 -1.37308,-0.73621 -2.98345,-0.30611 -3.79148,1.20094 m 7.83322,3.72563 -0.9578,5.56602 1.3396,0.71824 1.18511,-2.21033 11.55402,6.1949 0.25096,0.7382 -0.83568,1.88028 1.50705,0.80803 4.70453,-8.77436 -1.50705,-0.80803 -1.13951,1.80361 -0.77169,0.23301 -14.46764,-7.75709 -0.8619,1.60752"
         style="font-family:Bitstream Charter;-inkscape-font-specification:Bitstream Charter Bold"
         id="path4484"
         inkscape:connector-curvature="0" />
      <path
         d="m 488.85463,560.61197 c -1.38078,1.50551 -2.43385,3.11595 -3.20939,4.85046 -1.90782,4.2669 -0.85462,7.77647 2.12874,9.1104 2.08141,0.93065 3.88499,0.15529 6.31633,-1.83789 2.56276,-2.10092 3.74725,-3.81908 5.62052,-2.9815 1.52637,0.68247 2.01686,2.19218 1.17928,4.06545 -0.46532,1.04071 -1.14246,1.90346 -2.0314,2.58826 l -0.5367,0.17628 -3.15398,-0.95234 -0.94616,2.11611 5.13416,2.2956 c 1.5514,-1.88711 2.68202,-3.671 3.42654,-5.33613 2.00089,-4.47504 0.94402,-8.06951 -2.5597,-9.63609 -2.4977,-1.11678 -4.31845,0.44178 -7.19059,2.86224 -1.92116,1.59692 -3.03826,2.5127 -4.49525,1.86125 -1.28354,-0.5739 -1.66263,-1.86729 -0.9026,-3.56711 0.35675,-0.79787 0.90613,-1.468 1.57876,-2.04138 l 0.56772,-0.24567 2.75688,0.81641 0.93065,-2.08142 -4.61381,-2.06293"
         style="font-family:Bitstream Charter;-inkscape-font-specification:Bitstream Charter Bold"
         id="path4486"
         inkscape:connector-curvature="0" />
      <path
         d="m 508.34813,553.14346 2.21021,0.22489 2.16387,-6.40854 -1.58413,-0.53489 -0.82432,1.84738 -0.66207,0.29785 -9.32479,-3.14856 c -4.60838,-1.55604 -6.94389,-0.45957 -8.64581,4.58085 -1.60467,4.75239 -0.52596,8.5659 1.52621,9.25882 0.97208,0.32823 1.52662,-0.12626 1.89132,-1.20634 l 1.1184,-3.31228 -3.38428,-1.14272 c 0.0748,-0.69668 0.18515,-1.26104 0.3675,-1.80109 0.80233,-2.37619 2.30697,-3.03127 4.89919,-2.156 l 1.08009,0.3647 c -0.84859,8.09598 -0.95937,11.86882 3.18097,13.26683 2.73623,0.9239 5.33685,-0.36381 6.27291,-3.13604 0.65645,-1.94416 0.48484,-4.16793 -0.28527,-6.99486 m -1.47612,-0.49842 c 0.24595,1.64725 0.21697,2.92092 -0.0991,3.85699 -0.55921,1.65614 -1.94368,2.31169 -3.59982,1.75248 -2.37619,-0.80233 -2.66797,-3.02657 -2.16958,-7.59099 l 5.8685,1.98152"
         style="font-family:Bitstream Charter;-inkscape-font-specification:Bitstream Charter Bold"
         id="path4488"
         inkscape:connector-curvature="0" />
    </g>
    <path
       style="fill:none;stroke:none"
       d="m 39.922689,85.223641 c 0.209921,34.050569 27.525655,61.716479 61.547571,62.336599 34.61722,0.63096 63.19117,-26.93986 63.82169,-61.581149"
       id="path3870"
       inkscape:connector-curvature="0"
       inkscape:transform-center-y="31.347865"
       inkscape:export-filename="/home/phooky/Projects/Diplomat/stamp.png"
       inkscape:export-xdpi="600"
       inkscape:export-ydpi="600" />
    <g
       id="g4356"
       transform="matrix(0.24877473,-0.19064422,0.19064422,0.24877473,-28.318988,-11.783039)"
       inkscape:export-filename="/home/phooky/Projects/Diplomat/stamp.png"
       inkscape:export-xdpi="600"
       inkscape:export-ydpi="600">
      <g
         id="g4282">
        <path
           sodipodi:type="star"
           style="fill:#000000;fill-opacity:1;stroke:none"
           id="path3906"
           sodipodi:sides="5"
           sodipodi:cx="20"
           sodipodi:cy="212.36218"
           sodipodi:r1="20"
           sodipodi:r2="10"
           sodipodi:arg1="0"
           sodipodi:arg2="0.62831853"
           inkscape:flatsided="false"
           inkscape:rounded="0"
           inkscape:randomized="0"
           d="m 40,212.36218 -11.90983,5.87786 -1.90983,13.14327 -9.27051,-9.51056 L 3.8196601,224.11789 10,212.36218 l -6.1803399,-11.7557 13.0901699,2.24514 9.27051,-9.51057 1.90983,13.14328 z"
           inkscape:transform-center-x="-1.3819661"
           transform="matrix(0.7236068,0,0,0.7236068,19.673762,114.44221)" />
        <path
           sodipodi:type="star"
           style="fill:#000000;fill-opacity:1;stroke:none"
           id="path3896"
           sodipodi:sides="5"
           sodipodi:cx="20"
           sodipodi:cy="212.36218"
           sodipodi:r1="20"
           sodipodi:r2="10"
           sodipodi:arg1="0"
           sodipodi:arg2="0.62831853"
           inkscape:flatsided="false"
           inkscape:rounded="0"
           inkscape:randomized="0"
           d="m 40,212.36218 -11.90983,5.87786 -1.90983,13.14327 -9.27051,-9.51056 L 3.8196601,224.11789 10,212.36218 l -6.1803399,-11.7557 13.0901699,2.24514 9.27051,-9.51057 1.90983,13.14328 z"
           inkscape:transform-center-x="-1.3819661"
           transform="matrix(0.7236068,0,0,0.7236068,59.673762,34.442209)" />
        <path
           sodipodi:type="star"
           style="fill:#000000;fill-opacity:1;stroke:none"
           id="path3908"
           sodipodi:sides="5"
           sodipodi:cx="20"
           sodipodi:cy="212.36218"
           sodipodi:r1="20"
           sodipodi:r2="10"
           sodipodi:arg1="0"
           sodipodi:arg2="0.62831853"
           inkscape:flatsided="false"
           inkscape:rounded="0"
           inkscape:randomized="0"
           d="m 40,212.36218 -11.90983,5.87786 -1.90983,13.14327 -9.27051,-9.51056 L 3.8196601,224.11789 10,212.36218 l -6.1803399,-11.7557 13.0901699,2.24514 9.27051,-9.51057 1.90983,13.14328 z"
           inkscape:transform-center-x="-1.3819661"
           transform="matrix(0.7236068,0,0,0.7236068,59.673762,114.44221)" />
        <path
           transform="matrix(0.7236068,0,0,0.7236068,99.673762,74.442208)"
           inkscape:transform-center-x="-1.3819661"
           d="m 40,212.36218 -11.90983,5.87786 -1.90983,13.14327 -9.27051,-9.51056 L 3.8196601,224.11789 10,212.36218 l -6.1803399,-11.7557 13.0901699,2.24514 9.27051,-9.51057 1.90983,13.14328 z"
           inkscape:randomized="0"
           inkscape:rounded="0"
           inkscape:flatsided="false"
           sodipodi:arg2="0.62831853"
           sodipodi:arg1="0"
           sodipodi:r2="10"
           sodipodi:r1="20"
           sodipodi:cy="212.36218"
           sodipodi:cx="20"
           sodipodi:sides="5"
           id="path3920"
           style="fill:#000000;fill-opacity:1;stroke:none"
           sodipodi:type="star" />
        <path
           transform="matrix(0.7236068,0,0,0.7236068,99.673762,114.44221)"
           inkscape:transform-center-x="-1.3819661"
           d="m 40,212.36218 -11.90983,5.87786 -1.90983,13.14327 -9.27051,-9.51056 L 3.8196601,224.11789 10,212.36218 l -6.1803399,-11.7557 13.0901699,2.24514 9.27051,-9.51057 1.90983,13.14328 z"
           inkscape:randomized="0"
           inkscape:rounded="0"
           inkscape:flatsided="false"
           sodipodi:arg2="0.62831853"
           sodipodi:arg1="0"
           sodipodi:r2="10"
           sodipodi:r1="20"
           sodipodi:cy="212.36218"
           sodipodi:cx="20"
           sodipodi:sides="5"
           id="path3922"
           style="fill:#000000;fill-opacity:1;stroke:none"
           sodipodi:type="star" />
      </g>
    </g>
    <path
       transform="matrix(0.20440777,0,0,0.20440777,39.042753,46.205481)"
       inkscape:transform-center-x="-0.39038332"
       d="m 40,212.36218 -11.90983,5.87786 -1.90983,13.14327 -9.27051,-9.51056 L 3.8196601,224.11789 10,212.36218 l -6.1803399,-11.7557 13.0901699,2.24514 9.27051,-9.51057 1.90983,13.14328 z"
       inkscape:randomized="0"
       inkscape:rounded="0"
       inkscape:flatsided="false"
       sodipodi:arg2="0.62831853"
       sodipodi:arg1="0"
       sodipodi:r2="10"
       sodipodi:r1="20"
       sodipodi:cy="212.36218"
       sodipodi:cx="20"
       sodipodi:sides="5"
       id="path3892"
       style="fill:#000000;fill-opacity:1;stroke:none"
       sodipodi:type="star"
       inkscape:export-filename="/home/phooky/Projects/Diplomat/stamp.png"
       inkscape:export-xdpi="600"
       inkscape:export-ydpi="600" />
    <g
       id="g4372"
       transform="matrix(0.31342317,0,0,0.31342317,4.1028973,-69.889859)"
       inkscape:export-filename="/home/phooky/Projects/Diplomat/stamp.png"
       inkscape:export-xdpi="600"
       inkscape:export-ydpi="600">
      <g
         id="g4275"
         transform="matrix(0.98102559,-0.19387829,0.19387829,0.98102559,-223.75882,88.677789)">
        <path
           sodipodi:type="star"
           style="fill:#000000;fill-opacity:1;stroke:none"
           id="path3900-0"
           sodipodi:sides="5"
           sodipodi:cx="20"
           sodipodi:cy="212.36218"
           sodipodi:r1="20"
           sodipodi:r2="10"
           sodipodi:arg1="0"
           sodipodi:arg2="0.62831853"
           inkscape:flatsided="false"
           inkscape:rounded="0"
           inkscape:randomized="0"
           d="m 40,212.36218 -11.90983,5.87786 -1.90983,13.14327 -9.27051,-9.51056 L 3.8196601,224.11789 10,212.36218 l -6.1803399,-11.7557 13.0901699,2.24514 9.27051,-9.51057 1.90983,13.14328 z"
           inkscape:transform-center-x="-1.3819661"
           transform="matrix(0.7236068,0,0,0.7236068,539.67376,542.94872)" />
        <path
           sodipodi:type="star"
           style="fill:#000000;fill-opacity:1;stroke:none"
           id="path3908-9"
           sodipodi:sides="5"
           sodipodi:cx="20"
           sodipodi:cy="212.36218"
           sodipodi:r1="20"
           sodipodi:r2="10"
           sodipodi:arg1="0"
           sodipodi:arg2="0.62831853"
           inkscape:flatsided="false"
           inkscape:rounded="0"
           inkscape:randomized="0"
           d="m 40,212.36218 -11.90983,5.87786 -1.90983,13.14327 -9.27051,-9.51056 L 3.8196601,224.11789 10,212.36218 l -6.1803399,-11.7557 13.0901699,2.24514 9.27051,-9.51057 1.90983,13.14328 z"
           inkscape:transform-center-x="-1.3819661"
           transform="matrix(0.7236068,0,0,0.7236068,579.67376,582.94872)" />
        <path
           transform="matrix(0.7236068,0,0,0.7236068,619.67376,502.94872)"
           inkscape:transform-center-x="-1.3819661"
           d="m 40,212.36218 -11.90983,5.87786 -1.90983,13.14327 -9.27051,-9.51056 L 3.8196601,224.11789 10,212.36218 l -6.1803399,-11.7557 13.0901699,2.24514 9.27051,-9.51057 1.90983,13.14328 z"
           inkscape:randomized="0"
           inkscape:rounded="0"
           inkscape:flatsided="false"
           sodipodi:arg2="0.62831853"
           sodipodi:arg1="0"
           sodipodi:r2="10"
           sodipodi:r1="20"
           sodipodi:cy="212.36218"
           sodipodi:cx="20"
           sodipodi:sides="5"
           id="path3918-9"
           style="fill:#000000;fill-opacity:1;stroke:none"
           sodipodi:type="star" />
        <path
           transform="matrix(0.7236068,0,0,0.7236068,619.67376,542.94872)"
           inkscape:transform-center-x="-1.3819661"
           d="m 40,212.36218 -11.90983,5.87786 -1.90983,13.14327 -9.27051,-9.51056 L 3.8196601,224.11789 10,212.36218 l -6.1803399,-11.7557 13.0901699,2.24514 9.27051,-9.51057 1.90983,13.14328 z"
           inkscape:randomized="0"
           inkscape:rounded="0"
           inkscape:flatsided="false"
           sodipodi:arg2="0.62831853"
           sodipodi:arg1="0"
           sodipodi:r2="10"
           sodipodi:r1="20"
           sodipodi:cy="212.36218"
           sodipodi:cx="20"
           sodipodi:sides="5"
           id="path3920-6"
           style="fill:#000000;fill-opacity:1;stroke:none"
           sodipodi:type="star" />
        <path
           transform="matrix(0.7236068,0,0,0.7236068,619.67376,582.94872)"
           inkscape:transform-center-x="-1.3819661"
           d="m 40,212.36218 -11.90983,5.87786 -1.90983,13.14327 -9.27051,-9.51056 L 3.8196601,224.11789 10,212.36218 l -6.1803399,-11.7557 13.0901699,2.24514 9.27051,-9.51057 1.90983,13.14328 z"
           inkscape:randomized="0"
           inkscape:rounded="0"
           inkscape:flatsided="false"
           sodipodi:arg2="0.62831853"
           sodipodi:arg1="0"
           sodipodi:r2="10"
           sodipodi:r1="20"
           sodipodi:cy="212.36218"
           sodipodi:cx="20"
           sodipodi:sides="5"
           id="path3922-7"
           style="fill:#000000;fill-opacity:1;stroke:none"
           sodipodi:type="star" />
      </g>
    </g>
    <g
       id="g4364"
       transform="matrix(0.30909886,-0.05188431,0.05188431,0.30909886,-18.074532,-31.369309)"
       inkscape:transform-center-x="-4.4774726"
       inkscape:export-filename="/home/phooky/Projects/Diplomat/stamp.png"
       inkscape:export-xdpi="600"
       inkscape:export-ydpi="600">
      <g
         id="g4268">
        <path
           sodipodi:type="star"
           style="fill:#000000;fill-opacity:1;stroke:none"
           id="path3894-4"
           sodipodi:sides="5"
           sodipodi:cx="20"
           sodipodi:cy="212.36218"
           sodipodi:r1="20"
           sodipodi:r2="10"
           sodipodi:arg1="0"
           sodipodi:arg2="0.62831853"
           inkscape:flatsided="false"
           inkscape:rounded="0"
           inkscape:randomized="0"
           d="m 40,212.36218 -11.90983,5.87786 -1.90983,13.14327 -9.27051,-9.51056 L 3.8196601,224.11789 10,212.36218 l -6.1803399,-11.7557 13.0901699,2.24514 9.27051,-9.51057 1.90983,13.14328 z"
           inkscape:transform-center-x="-1.3819661"
           transform="matrix(0.7236068,0,0,0.7236068,479.67376,114.44221)" />
        <path
           sodipodi:type="star"
           style="fill:#000000;fill-opacity:1;stroke:none"
           id="path3902-10"
           sodipodi:sides="5"
           sodipodi:cx="20"
           sodipodi:cy="212.36218"
           sodipodi:r1="20"
           sodipodi:r2="10"
           sodipodi:arg1="0"
           sodipodi:arg2="0.62831853"
           inkscape:flatsided="false"
           inkscape:rounded="0"
           inkscape:randomized="0"
           d="m 40,212.36218 -11.90983,5.87786 -1.90983,13.14327 -9.27051,-9.51056 L 3.8196601,224.11789 10,212.36218 l -6.1803399,-11.7557 13.0901699,2.24514 9.27051,-9.51057 1.90983,13.14328 z"
           inkscape:transform-center-x="-1.3819661"
           transform="matrix(0.7236068,0,0,0.7236068,519.67376,154.44221)" />
        <path
           sodipodi:type="star"
           style="fill:#000000;fill-opacity:1;stroke:none"
           id="path3908-3"
           sodipodi:sides="5"
           sodipodi:cx="20"
           sodipodi:cy="212.36218"
           sodipodi:r1="20"
           sodipodi:r2="10"
           sodipodi:arg1="0"
           sodipodi:arg2="0.62831853"
           inkscape:flatsided="false"
           inkscape:rounded="0"
           inkscape:randomized="0"
           d="m 40,212.36218 -11.90983,5.87786 -1.90983,13.14327 -9.27051,-9.51056 L 3.8196601,224.11789 10,212.36218 l -6.1803399,-11.7557 13.0901699,2.24514 9.27051,-9.51057 1.90983,13.14328 z"
           inkscape:transform-center-x="-1.3819661"
           transform="matrix(0.7236068,0,0,0.7236068,519.67376,194.44221)" />
        <path
           transform="matrix(0.7236068,0,0,0.7236068,559.67376,114.44221)"
           inkscape:transform-center-x="-1.3819661"
           d="m 40,212.36218 -11.90983,5.87786 -1.90983,13.14327 -9.27051,-9.51056 L 3.8196601,224.11789 10,212.36218 l -6.1803399,-11.7557 13.0901699,2.24514 9.27051,-9.51057 1.90983,13.14328 z"
           inkscape:randomized="0"
           inkscape:rounded="0"
           inkscape:flatsided="false"
           sodipodi:arg2="0.62831853"
           sodipodi:arg1="0"
           sodipodi:r2="10"
           sodipodi:r1="20"
           sodipodi:cy="212.36218"
           sodipodi:cx="20"
           sodipodi:sides="5"
           id="path3918-98"
           style="fill:#000000;fill-opacity:1;stroke:none"
           sodipodi:type="star" />
        <path
           transform="matrix(0.7236068,0,0,0.7236068,559.67376,154.44221)"
           inkscape:transform-center-x="-1.3819661"
           d="m 40,212.36218 -11.90983,5.87786 -1.90983,13.14327 -9.27051,-9.51056 L 3.8196601,224.11789 10,212.36218 l -6.1803399,-11.7557 13.0901699,2.24514 9.27051,-9.51057 1.90983,13.14328 z"
           inkscape:randomized="0"
           inkscape:rounded="0"
           inkscape:flatsided="false"
           sodipodi:arg2="0.62831853"
           sodipodi:arg1="0"
           sodipodi:r2="10"
           sodipodi:r1="20"
           sodipodi:cy="212.36218"
           sodipodi:cx="20"
           sodipodi:sides="5"
           id="path3920-3"
           style="fill:#000000;fill-opacity:1;stroke:none"
           sodipodi:type="star" />
      </g>
    </g>
    <path
       transform="matrix(0.20325567,0,0,0.20325567,157.89795,47.002961)"
       inkscape:transform-center-x="-0.38818309"
       d="m 40,212.36218 -11.90983,5.87786 -1.90983,13.14327 -9.27051,-9.51056 L 3.8196601,224.11789 10,212.36218 l -6.1803399,-11.7557 13.0901699,2.24514 9.27051,-9.51057 1.90983,13.14328 z"
       inkscape:randomized="0"
       inkscape:rounded="0"
       inkscape:flatsided="false"
       sodipodi:arg2="0.62831853"
       sodipodi:arg1="0"
       sodipodi:r2="10"
       sodipodi:r1="20"
       sodipodi:cy="212.36218"
       sodipodi:cx="20"
       sodipodi:sides="5"
       id="path3932-57"
       style="fill:#000000;fill-opacity:1;stroke:none"
       sodipodi:type="star"
       inkscape:export-filename="/home/phooky/Projects/Diplomat/stamp.png"
       inkscape:export-xdpi="600"
       inkscape:export-ydpi="600" />
    <g
       id="g4349"
       transform="matrix(0.30226398,0.08288892,-0.08288892,0.30226398,99.238854,128.23293)"
       inkscape:export-filename="/home/phooky/Projects/Diplomat/stamp.png"
       inkscape:export-xdpi="600"
       inkscape:export-ydpi="600">
      <path
         transform="matrix(0.7236068,0,0,0.7236068,-220.32624,-125.55779)"
         inkscape:transform-center-x="-1.3819661"
         d="m 40,212.36218 -11.90983,5.87786 -1.90983,13.14327 -9.27051,-9.51056 L 3.8196601,224.11789 10,212.36218 l -6.1803399,-11.7557 13.0901699,2.24514 9.27051,-9.51057 1.90983,13.14328 z"
         inkscape:randomized="0"
         inkscape:rounded="0"
         inkscape:flatsided="false"
         sodipodi:arg2="0.62831853"
         sodipodi:arg1="0"
         sodipodi:r2="10"
         sodipodi:r1="20"
         sodipodi:cy="212.36218"
         sodipodi:cx="20"
         sodipodi:sides="5"
         id="path3894-9-9"
         style="fill:#000000;fill-opacity:1;stroke:none"
         sodipodi:type="star" />
      <path
         transform="matrix(0.7236068,0,0,0.7236068,-220.32624,-45.557788)"
         inkscape:transform-center-x="-1.3819661"
         d="m 40,212.36218 -11.90983,5.87786 -1.90983,13.14327 -9.27051,-9.51056 L 3.8196601,224.11789 10,212.36218 l -6.1803399,-11.7557 13.0901699,2.24514 9.27051,-9.51057 1.90983,13.14328 z"
         inkscape:randomized="0"
         inkscape:rounded="0"
         inkscape:flatsided="false"
         sodipodi:arg2="0.62831853"
         sodipodi:arg1="0"
         sodipodi:r2="10"
         sodipodi:r1="20"
         sodipodi:cy="212.36218"
         sodipodi:cx="20"
         sodipodi:sides="5"
         id="path3906-4-7"
         style="fill:#000000;fill-opacity:1;stroke:none"
         sodipodi:type="star" />
      <path
         transform="matrix(0.7236068,0,0,0.7236068,-180.32624,-85.557788)"
         inkscape:transform-center-x="-1.3819661"
         d="m 40,212.36218 -11.90983,5.87786 -1.90983,13.14327 -9.27051,-9.51056 L 3.8196601,224.11789 10,212.36218 l -6.1803399,-11.7557 13.0901699,2.24514 9.27051,-9.51057 1.90983,13.14328 z"
         inkscape:randomized="0"
         inkscape:rounded="0"
         inkscape:flatsided="false"
         sodipodi:arg2="0.62831853"
         sodipodi:arg1="0"
         sodipodi:r2="10"
         sodipodi:r1="20"
         sodipodi:cy="212.36218"
         sodipodi:cx="20"
         sodipodi:sides="5"
         id="path3902-2-8"
         style="fill:#000000;fill-opacity:1;stroke:none"
         sodipodi:type="star" />
      <path
         transform="matrix(0.7236068,0,0,0.7236068,-180.32624,-45.557788)"
         inkscape:transform-center-x="-1.3819661"
         d="m 40,212.36218 -11.90983,5.87786 -1.90983,13.14327 -9.27051,-9.51056 L 3.8196601,224.11789 10,212.36218 l -6.1803399,-11.7557 13.0901699,2.24514 9.27051,-9.51057 1.90983,13.14328 z"
         inkscape:randomized="0"
         inkscape:rounded="0"
         inkscape:flatsided="false"
         sodipodi:arg2="0.62831853"
         sodipodi:arg1="0"
         sodipodi:r2="10"
         sodipodi:r1="20"
         sodipodi:cy="212.36218"
         sodipodi:cx="20"
         sodipodi:sides="5"
         id="path3908-0-3"
         style="fill:#000000;fill-opacity:1;stroke:none"
         sodipodi:type="star" />
      <path
         sodipodi:type="star"
         style="fill:#000000;fill-opacity:1;stroke:none"
         id="path3920-33-7"
         sodipodi:sides="5"
         sodipodi:cx="20"
         sodipodi:cy="212.36218"
         sodipodi:r1="20"
         sodipodi:r2="10"
         sodipodi:arg1="0"
         sodipodi:arg2="0.62831853"
         inkscape:flatsided="false"
         inkscape:rounded="0"
         inkscape:randomized="0"
         d="m 40,212.36218 -11.90983,5.87786 -1.90983,13.14327 -9.27051,-9.51056 L 3.8196601,224.11789 10,212.36218 l -6.1803399,-11.7557 13.0901699,2.24514 9.27051,-9.51057 1.90983,13.14328 z"
         inkscape:transform-center-x="-1.3819661"
         transform="matrix(0.7236068,0,0,0.7236068,-140.32624,-85.557788)" />
    </g>
    <text
       xml:space="preserve"
       style="font-size:5.6416173px;font-style:normal;font-variant:normal;font-weight:bold;font-stretch:normal;text-align:center;line-height:736.00001335%;letter-spacing:0px;word-spacing:0px;text-anchor:middle;fill:#000000;fill-opacity:1;stroke:none;font-family:Ubuntu;-inkscape-font-specification:Ubuntu Bold"
       x="99.92083"
       y="155.61967"
       id="text4380"
       sodipodi:linespacing="736.00001%"
       inkscape:export-filename="/home/phooky/Projects/Diplomat/stamp.png"
       inkscape:export-xdpi="600"
       inkscape:export-ydpi="600"><tspan
         sodipodi:role="line"
         id="tspan4382"
         x="99.92083"
         y="155.61967">TIMESTAMP OF ISSUANCE</tspan></text>
    <rect
       style="fill:none;stroke:#000000;stroke-width:0.10361543;stroke-miterlimit:4;stroke-opacity:1;stroke-dasharray:none"
       id="rect4384"
       width="163.08133"
       height="145.17198"
       x="19.722723"
       y="13.187239"
       inkscape:export-filename="/home/phooky/Projects/Diplomat/stamp.png"
       inkscape:export-xdpi="600"
       inkscape:export-ydpi="600" />
  </g>
</svg>
